# xmcd CD database file
#
# Track frame offsets:
#	150
#	15187
#	28280
#	47563
#	64268
#	79338
#	95628
#	109651
#	129713
#	142151
#	156760
#	169923
#
# Disc length: 2568 seconds
#
# Revision: 4
# Processed by: cddbd v1.5.2PL0 Copyright (c) Steve Scherf et al.
# Submitted via: CDex 1.70beta2
#
DISCID=a40a060c
DTITLE=Carlene Carter - Stronger
DYEAR=2008
DGENRE=Country
TTITLE0=The Bitter End
TTITLE1=Why Be Blue
TTITLE2=To Change Your Heart
TTITLE3=Bring Love
TTITLE4=I'm So Cool
TTITLE5=Spider Lace
TTITLE6=On to You
TTITLE7=Judgement Day
TTITLE8=Break My Little Heart in Two
TTITLE9=It Takes One to Know Me
TTITLE10=Light of Your Love
TTITLE11=Stronger
EXTD=YEAR: 2008
EXTT0=
EXTT1=
EXTT2=
EXTT3=
EXTT4=
EXTT5=
EXTT6=
EXTT7=
EXTT8=
EXTT9=
EXTT10=
EXTT11=
PLAYORDER=
